# xmcd
# 
# Track frame offsets:
#     150
#     30036
#     53535
#     82018
#     107692
#     132833
#     158186
#     184732
# 
# Disc length: 2849
# 
# Revision: 0
# Processed by: cddbd v1.5.2PL0 Copyright (c) Steve Scherf et al.
# Submitted via: fre:ac v1.0.17
# 
DISCID=560b1f08
DTITLE=Grupo Niche - Querer Es Poder
DYEAR=1993
DGENRE=Salsa
TTITLE0=Homenaje De Corazón
TTITLE1=Mi Mamá Me Ha Dicho
TTITLE2=Buenaventura y Caney
TTITLE3=Digo Yo
TTITLE4=Enamorado De Ti
TTITLE5=Consejo De Madre
TTITLE6=Nicolasa Santos
TTITLE7=Corazón Sin Corazón
EXTD=YEAR: 1993
EXTT0=
EXTT1=
EXTT2=
EXTT3=
EXTT4=
EXTT5=
EXTT6=
EXTT7=
PLAYORDER=
